<?xml version="1.0" encoding="UTF-8" standalone="no"?><!DOCTYPE svg PUBLIC "-//W3C//DTD SVG 1.1//EN" "http://www.w3.org/Graphics/SVG/1.1/DTD/svg11.dtd"><!-- Generated by graphviz version 2.40.1 (20161225.0304)
 --><!-- Title: architecture Pages: 1 --><svg xmlns="http://www.w3.org/2000/svg" xmlns:xlink="http://www.w3.org/1999/xlink" width="681pt" height="211pt" viewBox="0.00 0.00 680.94 211.00">
<g id="graph0" class="graph" transform="scale(1 1) rotate(0) translate(4 207)">
<title>architecture</title>
<polygon fill="#ffffff" stroke="transparent" points="-4,4 -4,-207 676.9355,-207 676.9355,4 -4,4"/>
<g id="clust1" class="cluster">
<title>cluster_0</title>
<polygon fill="none" stroke="#000000" points="498.6801,-10 498.6801,-195 664.9355,-195 664.9355,-10 498.6801,-10"/>
<text text-anchor="middle" x="581.8078" y="-178.4" font-family="Times,serif" font-size="14.00" fill="#000000">PCF Services</text>
</g>
<!-- my_ui -->
<g id="node1" class="node">
<title>my_ui</title>
<ellipse fill="#ffccbc" stroke="#000000" cx="57.4217" cy="-90" rx="57.3435" ry="18"/>
<text text-anchor="middle" x="57.4217" y="-85.8" font-family="Times,serif" font-size="14.00" fill="#000000">Swagger UI</text>
</g>
<!-- customer_service -->
<g id="node2" class="node">
<title>customer_service</title>
<ellipse fill="#c8e6c9" stroke="#000000" cx="228.834" cy="-90" rx="76.9811" ry="18"/>
<text text-anchor="middle" x="228.834" y="-85.8" font-family="Times,serif" font-size="14.00" fill="#000000">customer-service</text>
</g>
<!-- my_ui&#45;&gt;customer_service -->
<g id="edge1" class="edge">
<title>my_ui-&gt;customer_service</title>
<path fill="none" stroke="#000000" d="M114.9764,-90C123.5269,-90 132.4979,-90 141.493,-90"/>
<polygon fill="#000000" stroke="#000000" points="141.6378,-93.5001 151.6378,-90 141.6377,-86.5001 141.6378,-93.5001"/>
</g>
<!-- service_registry -->
<g id="node3" class="node">
<title>service_registry</title>
<ellipse fill="#303f9f" stroke="#000000" cx="581.8078" cy="-144" rx="75.2557" ry="18"/>
<text text-anchor="middle" x="581.8078" y="-139.8" font-family="Times,serif" font-size="14.00" fill="#ffffff">Service Registry</text>
</g>
<!-- customer_service&#45;&gt;service_registry -->
<g id="edge2" class="edge">
<title>customer_service-&gt;service_registry</title>
<path fill="none" stroke="#000000" d="M282.9179,-102.8427C296.2449,-105.7621 310.5131,-108.6821 323.8245,-111 383.4613,-121.3845 451.3867,-129.9426 502.5646,-135.7394"/>
<polygon fill="#000000" stroke="#000000" points="502.2416,-139.2251 512.5694,-136.8617 503.0219,-132.2687 502.2416,-139.2251"/>
<text text-anchor="middle" x="406.2523" y="-137.2" font-family="Times,serif" font-size="14.00" fill="#000000">Register</text>
</g>
<!-- rabbit_mq -->
<g id="node5" class="node">
<title>rabbit_mq</title>
<ellipse fill="#303f9f" stroke="#000000" cx="581.8078" cy="-90" rx="54.5158" ry="18"/>
<text text-anchor="middle" x="581.8078" y="-85.8" font-family="Times,serif" font-size="14.00" fill="#ffffff">Rabbit MQ</text>
</g>
<!-- customer_service&#45;&gt;rabbit_mq -->
<g id="edge4" class="edge">
<title>customer_service-&gt;rabbit_mq</title>
<path fill="none" stroke="#000000" d="M305.8594,-90C368.9471,-90 457.2106,-90 516.7864,-90"/>
<polygon fill="#000000" stroke="#000000" points="516.8275,-93.5001 526.8275,-90 516.8275,-86.5001 516.8275,-93.5001"/>
<text text-anchor="middle" x="406.2523" y="-94.2" font-family="Times,serif" font-size="14.00" fill="#000000">Publish customer details</text>
</g>
<!-- database -->
<g id="node6" class="node">
<title>database</title>
<ellipse fill="#ffeb3b" stroke="#000000" cx="228.834" cy="-18" rx="38.8249" ry="18"/>
<text text-anchor="middle" x="228.834" y="-13.8" font-family="Times,serif" font-size="14.00" fill="#000000">H2 DB</text>
</g>
<!-- customer_service&#45;&gt;database -->
<g id="edge5" class="edge">
<title>customer_service-&gt;database</title>
<path fill="none" stroke="#000000" d="M228.834,-71.5867C228.834,-63.9407 228.834,-54.8916 228.834,-46.4274"/>
<polygon fill="#000000" stroke="#000000" points="232.3341,-46.1686 228.834,-36.1686 225.3341,-46.1687 232.3341,-46.1686"/>
<text text-anchor="middle" x="217.434" y="-49.8" font-family="Times,serif" font-size="14.00" fill="#000000">Store customer details in memory</text>
</g>
<!-- config_server -->
<g id="node4" class="node">
<title>config_server</title>
<ellipse fill="#303f9f" stroke="#000000" cx="581.8078" cy="-36" rx="65.4493" ry="18"/>
<text text-anchor="middle" x="581.8078" y="-31.8" font-family="Times,serif" font-size="14.00" fill="#ffffff">Config Server</text>
</g>
<!-- config_server&#45;&gt;customer_service -->
<g id="edge3" class="edge">
<title>config_server-&gt;customer_service</title>
<path fill="none" stroke="#000000" d="M520.3336,-42.3781C467.9224,-48.1818 390.676,-57.6022 323.8245,-69.2 313.9067,-70.9206 303.4558,-72.9681 293.2582,-75.0968"/>
<polygon fill="#000000" stroke="#000000" points="292.2262,-71.738 283.1742,-77.2435 293.6838,-78.5845 292.2262,-71.738"/>
<text text-anchor="middle" x="406.2523" y="-73.2" font-family="Times,serif" font-size="14.00" fill="#000000">Supply application properties</text>
</g>
</g>
</svg>