<?xml version="1.0" encoding="UTF-8" standalone="no"?><!DOCTYPE svg PUBLIC "-//W3C//DTD SVG 1.1//EN" "http://www.w3.org/Graphics/SVG/1.1/DTD/svg11.dtd"><!-- Generated by graphviz version 2.40.1 (20161225.0304)
 --><!-- Title: architecture Pages: 1 --><svg xmlns="http://www.w3.org/2000/svg" xmlns:xlink="http://www.w3.org/1999/xlink" width="644pt" height="183pt" viewBox="0.00 0.00 644.47 183.00">
<g id="graph0" class="graph" transform="scale(1 1) rotate(0) translate(4 179)">
<title>architecture</title>
<polygon fill="#ffffff" stroke="transparent" points="-4,4 -4,-179 640.4748,-179 640.4748,4 -4,4"/>
<g id="clust1" class="cluster">
<title>cluster_0</title>
<polygon fill="none" stroke="#000000" points="462.2193,-36 462.2193,-167 628.4748,-167 628.4748,-36 462.2193,-36"/>
<text text-anchor="middle" x="545.3471" y="-150.4" font-family="Times,serif" font-size="14.00" fill="#000000">PCF Services</text>
</g>
<!-- my_ui -->
<g id="node1" class="node">
<title>my_ui</title>
<ellipse fill="#ffccbc" stroke="#000000" cx="57.4217" cy="-90" rx="57.3435" ry="18"/>
<text text-anchor="middle" x="57.4217" y="-85.8" font-family="Times,serif" font-size="14.00" fill="#000000">Swagger UI</text>
</g>
<!-- item_service -->
<g id="node2" class="node">
<title>item_service</title>
<ellipse fill="#c8e6c9" stroke="#000000" cx="210.6036" cy="-90" rx="58.5213" ry="18"/>
<text text-anchor="middle" x="210.6036" y="-85.8" font-family="Times,serif" font-size="14.00" fill="#000000">item-service</text>
</g>
<!-- my_ui&#45;&gt;item_service -->
<g id="edge1" class="edge">
<title>my_ui-&gt;item_service</title>
<path fill="none" stroke="#000000" d="M114.8968,-90C123.6555,-90 132.7706,-90 141.7426,-90"/>
<polygon fill="#000000" stroke="#000000" points="141.7851,-93.5001 151.7851,-90 141.785,-86.5001 141.7851,-93.5001"/>
</g>
<!-- service_registry -->
<g id="node3" class="node">
<title>service_registry</title>
<ellipse fill="#303f9f" stroke="#000000" cx="545.3471" cy="-116" rx="75.2557" ry="18"/>
<text text-anchor="middle" x="545.3471" y="-111.8" font-family="Times,serif" font-size="14.00" fill="#ffffff">Service Registry</text>
</g>
<!-- item_service&#45;&gt;service_registry -->
<g id="edge2" class="edge">
<title>item_service-&gt;service_registry</title>
<path fill="none" stroke="#000000" d="M267.7677,-94.44C321.6063,-98.6217 402.8324,-104.9307 463.5281,-109.645"/>
<polygon fill="#000000" stroke="#000000" points="463.6056,-113.1615 473.8466,-110.4465 464.1477,-106.1825 463.6056,-113.1615"/>
<text text-anchor="middle" x="369.7915" y="-112.2" font-family="Times,serif" font-size="14.00" fill="#000000">Register</text>
</g>
<!-- database -->
<g id="node5" class="node">
<title>database</title>
<ellipse fill="#ffeb3b" stroke="#000000" cx="210.6036" cy="-18" rx="38.8249" ry="18"/>
<text text-anchor="middle" x="210.6036" y="-13.8" font-family="Times,serif" font-size="14.00" fill="#000000">H2 DB</text>
</g>
<!-- item_service&#45;&gt;database -->
<g id="edge4" class="edge">
<title>item_service-&gt;database</title>
<path fill="none" stroke="#000000" d="M210.6036,-71.5867C210.6036,-63.9407 210.6036,-54.8916 210.6036,-46.4274"/>
<polygon fill="#000000" stroke="#000000" points="214.1037,-46.1686 210.6036,-36.1686 207.1037,-46.1687 214.1037,-46.1686"/>
<text text-anchor="middle" x="199.2036" y="-49.8" font-family="Times,serif" font-size="14.00" fill="#000000">Store item details in memory</text>
</g>
<!-- config_server -->
<g id="node4" class="node">
<title>config_server</title>
<ellipse fill="#303f9f" stroke="#000000" cx="545.3471" cy="-62" rx="65.4493" ry="18"/>
<text text-anchor="middle" x="545.3471" y="-57.8" font-family="Times,serif" font-size="14.00" fill="#ffffff">Config Server</text>
</g>
<!-- config_server&#45;&gt;item_service -->
<g id="edge3" class="edge">
<title>config_server-&gt;item_service</title>
<path fill="none" stroke="#000000" d="M479.9244,-62.8336C427.6461,-64.1042 352.5864,-67.2828 287.3637,-75.2 281.4083,-75.9229 275.2209,-76.8374 269.0592,-77.8558"/>
<polygon fill="#000000" stroke="#000000" points="268.0093,-74.4861 258.7594,-79.6523 269.2121,-81.3819 268.0093,-74.4861"/>
<text text-anchor="middle" x="369.7915" y="-79.2" font-family="Times,serif" font-size="14.00" fill="#000000">Supply application properties</text>
</g>
</g>
</svg>