<?xml version="1.0" encoding="UTF-8" standalone="no"?><!DOCTYPE svg PUBLIC "-//W3C//DTD SVG 1.1//EN" "http://www.w3.org/Graphics/SVG/1.1/DTD/svg11.dtd"><!-- Generated by graphviz version 2.40.1 (20161225.0304)
 --><!-- Title: architecture Pages: 1 --><svg xmlns="http://www.w3.org/2000/svg" xmlns:xlink="http://www.w3.org/1999/xlink" width="1258pt" height="189pt" viewBox="0.00 0.00 1257.95 189.00">
<g id="graph0" class="graph" transform="scale(1 1) rotate(0) translate(4 185)">
<title>architecture</title>
<polygon fill="#ffffff" stroke="transparent" points="-4,4 -4,-185 1253.9542,-185 1253.9542,4 -4,4"/>
<!-- user -->
<g id="node1" class="node">
<title>user</title>
<ellipse fill="#c8e6c9" stroke="#000000" cx="29.265" cy="-90" rx="29.0318" ry="18"/>
<text text-anchor="middle" x="29.265" y="-85.8" font-family="Times,serif" font-size="14.00" fill="#000000">User</text>
</g>
<!-- customer_service -->
<g id="node2" class="node">
<title>customer_service</title>
<ellipse fill="#c8e6c9" stroke="#000000" cx="506.5828" cy="-144" rx="76.9811" ry="18"/>
<text text-anchor="middle" x="506.5828" y="-139.8" font-family="Times,serif" font-size="14.00" fill="#000000">customer-service</text>
</g>
<!-- user&#45;&gt;customer_service -->
<g id="edge1" class="edge">
<title>user-&gt;customer_service</title>
<path fill="none" stroke="#000000" d="M51.7808,-101.8823C59.4362,-105.4088 68.1722,-108.8895 76.5299,-111 197.4131,-141.525 342.9695,-146.3029 429.9701,-145.9128"/>
<text text-anchor="middle" x="240.5812" y="-149.2" font-family="Times,serif" font-size="14.00" fill="#000000">Create customer with details and retrieve all the customers</text>
</g>
<!-- item_service -->
<g id="node3" class="node">
<title>item_service</title>
<ellipse fill="#c8e6c9" stroke="#000000" cx="506.5828" cy="-18" rx="58.5213" ry="18"/>
<text text-anchor="middle" x="506.5828" y="-13.8" font-family="Times,serif" font-size="14.00" fill="#000000">item-service</text>
</g>
<!-- user&#45;&gt;item_service -->
<g id="edge3" class="edge">
<title>user-&gt;item_service</title>
<path fill="none" stroke="#000000" d="M57.6939,-85.7117C135.4646,-73.9805 352.6399,-41.2212 453.6598,-25.9831"/>
<text text-anchor="middle" x="348.6921" y="-19.1774" font-family="Times,serif" font-size="14.00" fill="#000000">Get the item details</text>
</g>
<!-- sales_order_service -->
<g id="node4" class="node">
<title>sales_order_service</title>
<ellipse fill="#c8e6c9" stroke="#000000" cx="506.5828" cy="-90" rx="83.9006" ry="18"/>
<text text-anchor="middle" x="506.5828" y="-85.8" font-family="Times,serif" font-size="14.00" fill="#000000">sales-order-service</text>
</g>
<!-- user&#45;&gt;sales_order_service -->
<g id="edge2" class="edge">
<title>user-&gt;sales_order_service</title>
<path fill="none" stroke="#0000ff" d="M58.7631,-90C130.0036,-90 313.5705,-90 422.2873,-90"/>
<text text-anchor="middle" x="240.5812" y="-94.2" font-family="Times,serif" font-size="14.00" fill="#000000">Create order with details and return the order id</text>
</g>
<!-- rabbit_mq -->
<g id="node5" class="node">
<title>rabbit_mq</title>
<ellipse fill="#303f9f" stroke="#000000" cx="1195.1969" cy="-100" rx="54.5158" ry="18"/>
<text text-anchor="middle" x="1195.1969" y="-95.8" font-family="Times,serif" font-size="14.00" fill="#ffffff">Rabbit MQ</text>
</g>
<!-- customer_service&#45;&gt;rabbit_mq -->
<g id="edge6" class="edge">
<title>customer_service-&gt;rabbit_mq</title>
<path fill="none" stroke="#000000" d="M568.4384,-133.2338C581.6352,-131.2682 595.5177,-129.4474 608.5331,-128.2 836.0528,-106.3943 894.6121,-127.313 1122.4395,-109 1126.3249,-108.6877 1130.3218,-108.3213 1134.3481,-107.9183"/>
<polygon fill="#000000" stroke="#000000" points="1134.797,-111.3903 1144.37,-106.8507 1134.0555,-104.4297 1134.797,-111.3903"/>
<text text-anchor="middle" x="865.4863" y="-132.2" font-family="Times,serif" font-size="14.00" fill="#000000">Creates 'customer.created' event and publishes the newly added customer details</text>
</g>
<!-- database2 -->
<g id="node7" class="node">
<title>database2</title>
<ellipse fill="#ffeb3b" stroke="#000000" cx="1195.1969" cy="-163" rx="38.8249" ry="18"/>
<text text-anchor="middle" x="1195.1969" y="-158.8" font-family="Times,serif" font-size="14.00" fill="#000000">H2 DB</text>
</g>
<!-- customer_service&#45;&gt;database2 -->
<g id="edge9" class="edge">
<title>customer_service-&gt;database2</title>
<path fill="none" stroke="#000000" d="M582.0134,-147.9126C590.9503,-148.3131 599.9441,-148.687 608.5331,-149 814.9584,-156.5238 1062.3951,-160.9115 1156.4011,-162.4114"/>
<text text-anchor="middle" x="1102.4012" y="-147.7705" font-family="Times,serif" font-size="14.00" fill="#000000">Store and fetch customers</text>
</g>
<!-- database1 -->
<g id="node6" class="node">
<title>database1</title>
<ellipse fill="#ffeb3b" stroke="#000000" cx="1195.1969" cy="-37" rx="38.8249" ry="18"/>
<text text-anchor="middle" x="1195.1969" y="-32.8" font-family="Times,serif" font-size="14.00" fill="#000000">H2 DB</text>
</g>
<!-- item_service&#45;&gt;database1 -->
<g id="edge8" class="edge">
<title>item_service-&gt;database1</title>
<path fill="none" stroke="#000000" d="M565.6344,-18.4416C675.3624,-19.4626 918.1163,-22.6618 1122.4395,-32 1133.5698,-32.5087 1145.6454,-33.2585 1156.7011,-34.0235"/>
<text text-anchor="middle" x="1103.3146" y="-16.5989" font-family="Times,serif" font-size="14.00" fill="#000000">Fetch items</text>
</g>
<!-- sales_order_service&#45;&gt;item_service -->
<g id="edge4" class="edge">
<title>sales_order_service-&gt;item_service</title>
<path fill="none" stroke="#0000ff" d="M506.5828,-71.5867C506.5828,-63.9407 506.5828,-54.8916 506.5828,-46.4274"/>
<polygon fill="#0000ff" stroke="#0000ff" points="510.0829,-46.1686 506.5828,-36.1686 503.0829,-46.1687 510.0829,-46.1686"/>
<text text-anchor="middle" x="495.1828" y="-49.8" font-family="Times,serif" font-size="14.00" fill="#000000">Validates item details of the order</text>
</g>
<!-- sales_order_service&#45;&gt;database1 -->
<g id="edge5" class="edge">
<title>sales_order_service-&gt;database1</title>
<path fill="none" stroke="#0000ff" d="M555.9573,-75.3737C572.5238,-71.0393 591.195,-66.7689 608.5331,-64.2 813.2783,-33.8637 1062.2042,-34.5356 1156.4994,-36.114"/>
<text text-anchor="middle" x="865.4863" y="-69.2" font-family="Times,serif" font-size="14.00" fill="#000000">Validates customer details and also after successful order creation, it stores the order details</text>
</g>
<!-- rabbit_mq&#45;&gt;sales_order_service -->
<g id="edge7" class="edge">
<title>rabbit_mq-&gt;sales_order_service</title>
<path fill="none" stroke="#000000" d="M1143.5799,-93.8015C1136.4864,-93.1442 1129.2892,-92.5784 1122.4395,-92.2 932.1443,-81.6879 708.2713,-84.7481 589.8389,-87.5766"/>
<text text-anchor="middle" x="865.4863" y="-96.2" font-family="Times,serif" font-size="14.00" fill="#000000">Subcribes for 'customer.created' event and consumed the newly added customer details</text>
</g>
</g>
</svg>