<?xml version="1.0" encoding="UTF-8" standalone="no"?><!DOCTYPE svg PUBLIC "-//W3C//DTD SVG 1.1//EN" "http://www.w3.org/Graphics/SVG/1.1/DTD/svg11.dtd"><!-- Generated by graphviz version 2.40.1 (20161225.0304)
 --><!-- Title: architecture Pages: 1 --><svg xmlns="http://www.w3.org/2000/svg" xmlns:xlink="http://www.w3.org/1999/xlink" width="695pt" height="211pt" viewBox="0.00 0.00 694.86 211.00">
<g id="graph0" class="graph" transform="scale(1 1) rotate(0) translate(4 207)">
<title>architecture</title>
<polygon fill="#ffffff" stroke="transparent" points="-4,4 -4,-207 690.8551,-207 690.8551,4 -4,4"/>
<g id="clust1" class="cluster">
<title>cluster_0</title>
<polygon fill="none" stroke="#000000" points="512.5996,-10 512.5996,-195 678.8551,-195 678.8551,-10 512.5996,-10"/>
<text text-anchor="middle" x="595.7273" y="-178.4" font-family="Times,serif" font-size="14.00" fill="#000000">PCF Services</text>
</g>
<!-- my_ui -->
<g id="node1" class="node">
<title>my_ui</title>
<ellipse fill="#ffccbc" stroke="#000000" cx="57.4217" cy="-90" rx="57.3435" ry="18"/>
<text text-anchor="middle" x="57.4217" y="-85.8" font-family="Times,serif" font-size="14.00" fill="#000000">Swagger UI</text>
</g>
<!-- sales_order_service -->
<g id="node2" class="node">
<title>sales_order_service</title>
<ellipse fill="#c8e6c9" stroke="#000000" cx="235.7937" cy="-90" rx="83.9006" ry="18"/>
<text text-anchor="middle" x="235.7937" y="-85.8" font-family="Times,serif" font-size="14.00" fill="#000000">sales-order-service</text>
</g>
<!-- my_ui&#45;&gt;sales_order_service -->
<g id="edge1" class="edge">
<title>my_ui-&gt;sales_order_service</title>
<path fill="none" stroke="#000000" d="M115.334,-90C123.7597,-90 132.6119,-90 141.5319,-90"/>
<polygon fill="#000000" stroke="#000000" points="141.6127,-93.5001 151.6127,-90 141.6127,-86.5001 141.6127,-93.5001"/>
</g>
<!-- service_registry -->
<g id="node3" class="node">
<title>service_registry</title>
<ellipse fill="#303f9f" stroke="#000000" cx="595.7273" cy="-144" rx="75.2557" ry="18"/>
<text text-anchor="middle" x="595.7273" y="-139.8" font-family="Times,serif" font-size="14.00" fill="#ffffff">Service Registry</text>
</g>
<!-- sales_order_service&#45;&gt;service_registry -->
<g id="edge2" class="edge">
<title>sales_order_service-&gt;service_registry</title>
<path fill="none" stroke="#000000" d="M294.6833,-102.923C308.7536,-105.7907 323.7512,-108.6674 337.744,-111 397.663,-120.9886 465.8512,-129.5923 517.0701,-135.5082"/>
<polygon fill="#000000" stroke="#000000" points="516.7466,-138.994 527.0801,-136.6552 517.5435,-132.0395 516.7466,-138.994"/>
<text text-anchor="middle" x="420.1718" y="-137.2" font-family="Times,serif" font-size="14.00" fill="#000000">Register</text>
</g>
<!-- rabbit_mq -->
<g id="node5" class="node">
<title>rabbit_mq</title>
<ellipse fill="#303f9f" stroke="#000000" cx="595.7273" cy="-90" rx="54.5158" ry="18"/>
<text text-anchor="middle" x="595.7273" y="-85.8" font-family="Times,serif" font-size="14.00" fill="#ffffff">Rabbit MQ</text>
</g>
<!-- sales_order_service&#45;&gt;rabbit_mq -->
<g id="edge4" class="edge">
<title>sales_order_service-&gt;rabbit_mq</title>
<path fill="none" stroke="#000000" d="M320.1822,-90C388.3354,-90 482.2512,-90 540.9511,-90"/>
<text text-anchor="middle" x="420.1718" y="-94.2" font-family="Times,serif" font-size="14.00" fill="#000000">Consume customer details</text>
</g>
<!-- database -->
<g id="node6" class="node">
<title>database</title>
<ellipse fill="#ffeb3b" stroke="#000000" cx="235.7937" cy="-18" rx="38.8249" ry="18"/>
<text text-anchor="middle" x="235.7937" y="-13.8" font-family="Times,serif" font-size="14.00" fill="#000000">H2 DB</text>
</g>
<!-- sales_order_service&#45;&gt;database -->
<g id="edge5" class="edge">
<title>sales_order_service-&gt;database</title>
<path fill="none" stroke="#000000" d="M235.7937,-71.5867C235.7937,-63.9407 235.7937,-54.8916 235.7937,-46.4274"/>
<polygon fill="#000000" stroke="#000000" points="239.2938,-46.1686 235.7937,-36.1686 232.2938,-46.1687 239.2938,-46.1686"/>
<text text-anchor="middle" x="224.3937" y="-49.8" font-family="Times,serif" font-size="14.00" fill="#000000">Store item details in memory</text>
</g>
<!-- config_server -->
<g id="node4" class="node">
<title>config_server</title>
<ellipse fill="#303f9f" stroke="#000000" cx="595.7273" cy="-36" rx="65.4493" ry="18"/>
<text text-anchor="middle" x="595.7273" y="-31.8" font-family="Times,serif" font-size="14.00" fill="#ffffff">Config Server</text>
</g>
<!-- config_server&#45;&gt;sales_order_service -->
<g id="edge3" class="edge">
<title>config_server-&gt;sales_order_service</title>
<path fill="none" stroke="#000000" d="M534.556,-42.5934C482.1661,-48.5456 404.7882,-58.0622 337.744,-69.2 327.1021,-70.9679 315.8773,-73.0429 304.9206,-75.1855"/>
<polygon fill="#000000" stroke="#000000" points="304.0841,-71.7832 294.9582,-77.1653 305.4486,-78.6489 304.0841,-71.7832"/>
<text text-anchor="middle" x="420.1718" y="-73.2" font-family="Times,serif" font-size="14.00" fill="#000000">Supply application properties</text>
</g>
</g>
</svg>