<?xml version="1.0" encoding="UTF-8" standalone="no"?><!DOCTYPE svg PUBLIC "-//W3C//DTD SVG 1.1//EN" "http://www.w3.org/Graphics/SVG/1.1/DTD/svg11.dtd"><!-- Generated by graphviz version 2.40.1 (20161225.0304)
 --><!-- Title: architecture Pages: 1 --><svg xmlns="http://www.w3.org/2000/svg" xmlns:xlink="http://www.w3.org/1999/xlink" width="767pt" height="269pt" viewBox="0.00 0.00 766.53 269.00">
<g id="graph0" class="graph" transform="scale(1 1) rotate(0) translate(4 265)">
<title>architecture</title>
<polygon fill="#ffffff" stroke="transparent" points="-4,4 -4,-265 762.5291,-265 762.5291,4 -4,4"/>
<g id="clust1" class="cluster">
<title>cluster_0</title>
<polygon fill="none" stroke="#000000" points="584.2736,-42 584.2736,-227 750.5291,-227 750.5291,-42 584.2736,-42"/>
<text text-anchor="middle" x="667.4013" y="-210.4" font-family="Times,serif" font-size="14.00" fill="#000000">PCF Services</text>
</g>
<!-- my_ui -->
<g id="node1" class="node">
<title>my_ui</title>
<ellipse fill="#ffccbc" stroke="#000000" cx="57.4217" cy="-122" rx="57.3435" ry="18"/>
<text text-anchor="middle" x="57.4217" y="-117.8" font-family="Times,serif" font-size="14.00" fill="#000000">Swagger UI</text>
</g>
<!-- sales_order_service -->
<g id="node3" class="node">
<title>sales_order_service</title>
<ellipse fill="#c8e6c9" stroke="#000000" cx="307.4677" cy="-122" rx="83.9006" ry="18"/>
<text text-anchor="middle" x="307.4677" y="-117.8" font-family="Times,serif" font-size="14.00" fill="#000000">sales-order-service</text>
</g>
<!-- my_ui&#45;&gt;sales_order_service -->
<g id="edge1" class="edge">
<title>my_ui-&gt;sales_order_service</title>
<path fill="none" stroke="#0000ff" d="M115.1013,-122C144.1181,-122 180.0333,-122 212.9452,-122"/>
<polygon fill="#0000ff" stroke="#0000ff" points="213.0519,-125.5001 223.0519,-122 213.0518,-118.5001 213.0519,-125.5001"/>
<text text-anchor="middle" x="169.1804" y="-126.2" font-family="Times,serif" font-size="14.00" fill="#000000">Create Order</text>
</g>
<!-- item_service -->
<g id="node2" class="node">
<title>item_service</title>
<ellipse fill="#c8e6c9" stroke="#000000" cx="307.4677" cy="-243" rx="58.5213" ry="18"/>
<text text-anchor="middle" x="307.4677" y="-238.8" font-family="Times,serif" font-size="14.00" fill="#000000">item-service</text>
</g>
<!-- item_service&#45;&gt;sales_order_service -->
<g id="edge2" class="edge">
<title>item_service-&gt;sales_order_service</title>
<path fill="none" stroke="#0000ff" d="M307.4677,-224.7612C307.4677,-201.892 307.4677,-162.9259 307.4677,-140.1149"/>
<text text-anchor="middle" x="270.8677" y="-203.5" font-family="Times,serif" font-size="14.00" fill="#000000">Validates item details of the order </text>
<text text-anchor="middle" x="270.8677" y="-186.7" font-family="Times,serif" font-size="14.00" fill="#000000">from the load balanced instances. </text>
<text text-anchor="middle" x="270.8677" y="-169.9" font-family="Times,serif" font-size="14.00" fill="#000000">Hystrix fallback method will be invoked </text>
<text text-anchor="middle" x="270.8677" y="-153.1" font-family="Times,serif" font-size="14.00" fill="#000000">if the service is unavailable</text>
</g>
<!-- service_registry -->
<g id="node4" class="node">
<title>service_registry</title>
<ellipse fill="#303f9f" stroke="#000000" cx="667.4013" cy="-176" rx="75.2557" ry="18"/>
<text text-anchor="middle" x="667.4013" y="-171.8" font-family="Times,serif" font-size="14.00" fill="#ffffff">Service Registry</text>
</g>
<!-- sales_order_service&#45;&gt;service_registry -->
<g id="edge3" class="edge">
<title>sales_order_service-&gt;service_registry</title>
<path fill="none" stroke="#000000" d="M366.3573,-134.923C380.4276,-137.7907 395.4252,-140.6674 409.418,-143 469.337,-152.9886 537.5252,-161.5923 588.7441,-167.5082"/>
<polygon fill="#000000" stroke="#000000" points="588.4206,-170.994 598.7541,-168.6552 589.2175,-164.0395 588.4206,-170.994"/>
<text text-anchor="middle" x="491.8458" y="-169.2" font-family="Times,serif" font-size="14.00" fill="#000000">Register</text>
</g>
<!-- rabbit_mq -->
<g id="node6" class="node">
<title>rabbit_mq</title>
<ellipse fill="#303f9f" stroke="#000000" cx="667.4013" cy="-122" rx="54.5158" ry="18"/>
<text text-anchor="middle" x="667.4013" y="-117.8" font-family="Times,serif" font-size="14.00" fill="#ffffff">Rabbit MQ</text>
</g>
<!-- sales_order_service&#45;&gt;rabbit_mq -->
<g id="edge5" class="edge">
<title>sales_order_service-&gt;rabbit_mq</title>
<path fill="none" stroke="#000000" d="M391.8562,-122C460.0094,-122 553.9252,-122 612.6251,-122"/>
<text text-anchor="middle" x="491.8458" y="-126.2" font-family="Times,serif" font-size="14.00" fill="#000000">Consume customer details</text>
</g>
<!-- database -->
<g id="node7" class="node">
<title>database</title>
<ellipse fill="#ffeb3b" stroke="#000000" cx="307.4677" cy="-18" rx="38.8249" ry="18"/>
<text text-anchor="middle" x="307.4677" y="-13.8" font-family="Times,serif" font-size="14.00" fill="#000000">H2 DB</text>
</g>
<!-- sales_order_service&#45;&gt;database -->
<g id="edge6" class="edge">
<title>sales_order_service-&gt;database</title>
<path fill="none" stroke="#0000ff" d="M307.4677,-103.7432C307.4677,-87.8396 307.4677,-64.5247 307.4677,-46.22"/>
<polygon fill="#0000ff" stroke="#0000ff" points="310.9678,-46.1154 307.4677,-36.1154 303.9678,-46.1155 310.9678,-46.1154"/>
<text text-anchor="middle" x="279.2677" y="-82.6" font-family="Times,serif" font-size="14.00" fill="#000000">Validates customer details </text>
<text text-anchor="middle" x="279.2677" y="-65.8" font-family="Times,serif" font-size="14.00" fill="#000000">and also after successful order creation, </text>
<text text-anchor="middle" x="279.2677" y="-49" font-family="Times,serif" font-size="14.00" fill="#000000">it stores the order details</text>
</g>
<!-- config_server -->
<g id="node5" class="node">
<title>config_server</title>
<ellipse fill="#303f9f" stroke="#000000" cx="667.4013" cy="-68" rx="65.4493" ry="18"/>
<text text-anchor="middle" x="667.4013" y="-63.8" font-family="Times,serif" font-size="14.00" fill="#ffffff">Config Server</text>
</g>
<!-- config_server&#45;&gt;sales_order_service -->
<g id="edge4" class="edge">
<title>config_server-&gt;sales_order_service</title>
<path fill="none" stroke="#000000" d="M606.23,-74.5934C553.8401,-80.5456 476.4622,-90.0622 409.418,-101.2 398.7761,-102.9679 387.5513,-105.0429 376.5946,-107.1855"/>
<polygon fill="#000000" stroke="#000000" points="375.7581,-103.7832 366.6322,-109.1653 377.1226,-110.6489 375.7581,-103.7832"/>
<text text-anchor="middle" x="491.8458" y="-105.2" font-family="Times,serif" font-size="14.00" fill="#000000">Supply application properties</text>
</g>
</g>
</svg>